# xmcd
#
# Track frame offsets: 
#        150
#        14518
#        40776
#        69492
#        97820
#        120307
#
# Disc length: 2098 seconds
#
# Revision: 0
# Processed by: cddbd v1.5.2PL0 Copyright (c) Steve Scherf et al.
# Submitted via: ExactAudioCopy v0.99pb5
#
DISCID=3f083006
DTITLE=Matt Woosey - The Strange Rain
DYEAR=2008
DGENRE=Blues
TTITLE0=Nothing but a woman
TTITLE1=England air
TTITLE2=Irene
TTITLE3=Neon to wood
TTITLE4=Walking the blues
TTITLE5=Strange rain
EXTD=
EXTT0=
EXTT1=
EXTT2=
EXTT3=
EXTT4=
EXTT5=
PLAYORDER=
